<?xml version="1.0" standalone="no"?>
<!DOCTYPE svg PUBLIC "-//W3C//DTD SVG 20010904//EN"
 "http://www.w3.org/TR/2001/REC-SVG-20010904/DTD/svg10.dtd">
<svg version="1.0" xmlns="http://www.w3.org/2000/svg"
 width="500.000000pt" height="500.000000pt" viewBox="0 0 500.000000 500.000000"
 preserveAspectRatio="xMidYMid meet">
<metadata>
Created by potrace 1.11, written by Peter Selinger 2001-2013
</metadata>
<g transform="translate(0.000000,500.000000) scale(0.100000,-0.100000)"
fill="#000000" stroke="none">
<path d="M910 2490 l0 -1600 765 0 765 0 0 315 c0 173 3 315 8 315 4 -1 153
-142 332 -315 l325 -314 503 0 502 -1 0 492 0 493 -200 200 -200 200 200 200
200 200 -1 380 0 380 -352 327 -352 327 -1247 1 -1248 0 0 -1600z"/>
</g>
</svg>
